<svg width="180" height="180" viewBox="0 0 180 180" xmlns="http://www.w3.org/2000/svg">
   <!-- Book base -->
   <rect x="40" y="50" width="100" height="80" rx="4" fill="#1a5570" opacity="0.9"/>
   <rect x="45" y="55" width="90" height="70" rx="3" fill="#2B7A9B"/>

   <!-- Book pages -->
   <rect x="50" y="60" width="38" height="60" fill="#FFF8DC"/>
   <rect x="92" y="60" width="38" height="60" fill="#FFFAF0"/>

   <!-- Compass rose overlay -->
   <circle cx="90" cy="90" r="30" fill="#2B7A9B" opacity="0.95"/>

   <!-- Compass points -->
   <polygon points="90,65 93,85 90,90 87,85" fill="#E8956B"/>
   <polygon points="90,115 93,95 90,90 87,95" fill="#d67a4d"/>
   <polygon points="65,90 85,93 90,90 85,87" fill="#f0b090"/>
   <polygon points="115,90 95,93 90,90 95,87" fill="#e09b73"/>

   <!-- Center circle -->
   <circle cx="90" cy="90" r="8" fill="#E8956B"/>
   <circle cx="90" cy="90" r="4" fill="#1a5570"/>

   <!-- N marker -->
   <text x="90" y="63" font-family="Arial, sans-serif" font-size="10" font-weight="bold" fill="white" text-anchor="middle">N</text>
</svg>
